<svg  id="Laag_1" data-name="Laag 1" xmlns="http://www.w3.org/2000/svg" viewBox="0 0 544.15 175.65">
    <defs>
    </defs>
    <title>car</title>
    <path class="cls-1"
          d="M200,85.52C70.32,96.11,36.46,105.3,28.12,128.15H59.55a2.13,2.13,0,1,1,0,4.25H26.88a71.86,71.86,0,0,0-1.32,15.44v19c0,7.23,24.81,11.52,46.54,11.52a54.92,54.92,0,1,1,109-12.76H365.22a2.13,2.13,0,0,1,2.12,2.13,2.1,2.1,0,0,1-2.12,2.13H181.35v.46a55.3,55.3,0,0,1-.59,8H384.83a53.92,53.92,0,0,1-.6-8,54.75,54.75,0,0,1,15.15-37.9H257a2.13,2.13,0,0,1,0-4.25h146.9A54.9,54.9,0,0,1,494,170.3a56.37,56.37,0,0,1-.51,7.62c44.88-2.94,68.58-19.78,74.62-45.52H508.37a2.13,2.13,0,1,1,0-4.25H569a67.11,67.11,0,0,0,.72-9.87c0-39.1-1.66-37.57-57.34-37.57C441.75,31.49,289.79,22.64,200,85.52Zm272.35,4.3L486.2,75.35c-18.46-9-38.88-15.1-58.28-19.06-9.1-1.87-18.38-3.36-27.69-4.42V90.92ZM396,51.4a348,348,0,0,0-69.13-.21c-9,.89-18,2.12-27.1,3.78V92.45L396,91V51.4ZM295.49,55.78c-29.86,5.92-59.35,16.38-84.7,32.76-9.53,6.13-.3,5.27,10.72,5.1l74-1.1V55.78ZM126.43,123.89A46.42,46.42,0,1,1,80.06,170.3a46.42,46.42,0,0,1,46.37-46.41Zm0,21.27a25.15,25.15,0,1,1-25.1,25.14,25.14,25.14,0,0,1,25.1-25.14Zm312.72-21.27a46.42,46.42,0,1,1-46.41,46.41,46.41,46.41,0,0,1,46.41-46.41Zm0,21.27A25.15,25.15,0,1,1,414,170.3a25.13,25.13,0,0,1,25.14-25.14Z"
          transform="translate(-25.56 -41.06)"/>
</svg>