<svg id="Laag_1" data-name="Laag 1" xmlns="http://www.w3.org/2000/svg" viewBox="0 0 544.15 175.65">
    <defs>
    </defs>
    <title>car2</title>
    <path class="cls-1"
          d="M395.25,85.52c-89.76-62.88-241.72-54-312.34-4.81-55.69,0-57.35-1.53-57.35,37.57a67.09,67.09,0,0,0,.73,9.87H86.91a2.13,2.13,0,1,1,0,4.25H27.14c6,25.74,29.73,42.58,74.62,45.52a54.92,54.92,0,0,1,89.59-49.77H338.24a2.13,2.13,0,1,1,0,4.25H195.9a55,55,0,0,1,14.55,45.94H414.52a55.3,55.3,0,0,1-.59-8v-.46H230.06a2.11,2.11,0,0,1-2.13-2.13,2.14,2.14,0,0,1,2.13-2.13H414.14a54.9,54.9,0,1,1,109,12.76c21.74,0,46.54-4.29,46.54-11.52v-19a71.23,71.23,0,0,0-1.32-15.44H535.72a2.13,2.13,0,1,1,0-4.25h31.44c-8.34-22.85-42.2-32-171.91-42.63Zm-200.2,5.4V51.87c-9.32,1.06-18.59,2.55-27.7,4.42-19.4,4-39.81,10.09-58.28,19.06L122.9,89.82ZM199.3,51.4V91l96.23,1.44V55c-9.06-1.66-18.12-2.89-27.1-3.78a348,348,0,0,0-69.13.21Zm100.48,4.38V92.54l74,1.1c11,.17,20.24,1,10.72-5.1-25.36-16.38-54.84-26.84-84.71-32.76Zm169.07,68.11a46.42,46.42,0,1,1-46.42,46.41,46.41,46.41,0,0,1,46.42-46.41Zm0,21.27A25.15,25.15,0,1,1,443.7,170.3a25.14,25.14,0,0,1,25.15-25.14ZM156.12,123.89a46.42,46.42,0,1,1-46.37,46.41,46.42,46.42,0,0,1,46.37-46.41Zm0,21.27A25.15,25.15,0,1,1,131,170.3a25.15,25.15,0,0,1,25.1-25.14Z"
          transform="translate(-25.56 -41.06)"/>
</svg>